<?xml version="1.0" encoding="utf-8"?>
<!-- Generator: Adobe Illustrator 23.0.2, SVG Export Plug-In . SVG Version: 6.00 Build 0)  -->
<svg version="1.1" id="Layer_1" xmlns="http://www.w3.org/2000/svg" xmlns:xlink="http://www.w3.org/1999/xlink" x="0px" y="0px"
	 viewBox="0 0 452.6 344.9" style="enable-background:new 0 0 452.6 344.9;" xml:space="preserve">
<style type="text/css">
	.st0{fill:#FFFFFF;}
</style>
<g>
	<path class="st0" d="M329.7,9.3H237c-1.5,0-2.8-1.2-2.8-2.8V2.8c0-1.5,1.2-2.8,2.8-2.8l92.7,0c1.5,0,2.8,1.2,2.8,2.8v3.7
		C332.5,8,331.2,9.3,329.7,9.3z"/>
	<path class="st0" d="M426.9,12.6h-6.2c-1.5,0-2.8-1.2-2.8-2.8V6.1c0-1.5,1.2-2.8,2.8-2.8h6.2c1.5,0,2.8,1.2,2.8,2.8v3.7
		C429.6,11.4,428.4,12.6,426.9,12.6z"/>
	<path class="st0" d="M367.8,21h-180c-1.5,0-2.8-1.2-2.8-2.8v-3.7c0-1.5,1.2-2.8,2.8-2.8h180c1.5,0,2.8,1.2,2.8,2.8v3.7
		C370.6,19.8,369.3,21,367.8,21z"/>
	<path class="st0" d="M413.1,21H381c-1.5,0-2.8-1.2-2.8-2.8v-3.7c0-1.5,1.2-2.8,2.8-2.8h32.1c1.5,0,2.8,1.2,2.8,2.8v3.7
		C415.9,19.8,414.6,21,413.1,21z"/>
	<path class="st0" d="M405.5,32.7H160c-1.5,0-2.8-1.2-2.8-2.8v-3.7c0-1.5,1.2-2.8,2.8-2.8h245.5c1.5,0,2.8,1.2,2.8,2.8V30
		C408.2,31.5,407,32.7,405.5,32.7z"/>
	<path class="st0" d="M408.2,43.9H135.4c-1.5,0-2.8-1.2-2.8-2.8v-3.7c0-1.5,1.2-2.8,2.8-2.8h272.8c1.5,0,2.8,1.2,2.8,2.8v3.7
		C411,42.7,409.7,43.9,408.2,43.9z"/>
	<path class="st0" d="M413.1,55.7H117.4c-1.5,0-2.8-1.2-2.8-2.8v-3.7c0-1.5,1.2-2.8,2.8-2.8h295.7c1.5,0,2.8,1.2,2.8,2.8v3.7
		C415.9,54.4,414.6,55.7,413.1,55.7z"/>
	<path class="st0" d="M415.7,67.1H105.9c-1.5,0-2.8-1.2-2.8-2.8v-3.7c0-1.5,1.2-2.8,2.8-2.8h309.7c1.5,0,2.8,1.2,2.8,2.8v3.7
		C418.4,65.9,417.2,67.1,415.7,67.1z"/>
	<path class="st0" d="M302.9,79.1H97.2c-1.5,0-2.8-1.2-2.8-2.8v-3.7c0-1.5,1.2-2.8,2.8-2.8h205.7c1.5,0,2.8,1.2,2.8,2.8v3.7
		C305.6,77.9,304.4,79.1,302.9,79.1z"/>
	<path class="st0" d="M279.4,90.6H91.5c-1.5,0-2.8-1.2-2.8-2.8v-3.7c0-1.5,1.2-2.8,2.8-2.8h187.9c1.5,0,2.8,1.2,2.8,2.8v3.7
		C282.2,89.4,280.9,90.6,279.4,90.6z"/>
	<path class="st0" d="M256.7,102.3H78.6c-1.5,0-2.8-1.2-2.8-2.8v-3.7c0-1.5,1.2-2.8,2.8-2.8h178.1c1.5,0,2.8,1.2,2.8,2.8v3.7
		C259.5,101.1,258.3,102.3,256.7,102.3z"/>
	<path class="st0" d="M266.6,114.1H60.6c-1.5,0-2.8-1.2-2.8-2.8v-3.7c0-1.5,1.2-2.8,2.8-2.8h205.9c1.5,0,2.8,1.2,2.8,2.8v3.7
		C269.3,112.8,268.1,114.1,266.6,114.1z"/>
	<path class="st0" d="M341.6,114.1h-36.3c-1.5,0-2.8-1.2-2.8-2.8v-3.7c0-1.5,1.2-2.8,2.8-2.8h36.3c1.5,0,2.8,1.2,2.8,2.8v3.7
		C344.4,112.8,343.1,114.1,341.6,114.1z"/>
	<path class="st0" d="M341.5,125.5H19.5c-1.5,0-2.8-1.2-2.8-2.8V119c0-1.5,1.2-2.8,2.8-2.8h321.9c1.5,0,2.8,1.2,2.8,2.8v3.7
		C344.2,124.3,343,125.5,341.5,125.5z"/>
	<path class="st0" d="M333.2,137.3H60.4c-1.5,0-2.8-1.2-2.8-2.8v-3.7c0-1.5,1.2-2.8,2.8-2.8h272.8c1.5,0,2.8,1.2,2.8,2.8v3.7
		C336,136,334.7,137.3,333.2,137.3z"/>
	<path class="st0" d="M331.8,148.7H33.3c-1.5,0-2.8-1.2-2.8-2.8v-3.7c0-1.5,1.2-2.8,2.8-2.8h298.4c1.5,0,2.8,1.2,2.8,2.8v3.7
		C334.6,147.5,333.3,148.7,331.8,148.7z"/>
	<path class="st0" d="M279.1,160.5H53.5c-1.5,0-2.8-1.2-2.8-2.8V154c0-1.5,1.2-2.8,2.8-2.8h225.6c1.5,0,2.8,1.2,2.8,2.8v3.7
		C281.9,159.2,280.6,160.5,279.1,160.5z"/>
	<path class="st0" d="M268.9,172.2h-205c-1.5,0-2.8-1.2-2.8-2.8v-3.7c0-1.5,1.2-2.8,2.8-2.8h205c1.5,0,2.8,1.2,2.8,2.8v3.7
		C271.7,170.9,270.4,172.2,268.9,172.2z"/>
	<path class="st0" d="M235,183.9H31.5c-1.5,0-2.8-1.2-2.8-2.8v-3.7c0-1.5,1.2-2.8,2.8-2.8H235c1.5,0,2.8,1.2,2.8,2.8v3.7
		C237.7,182.7,236.5,183.9,235,183.9z"/>
	<path class="st0" d="M196.4,195.4H53c-1.5,0-2.8-1.2-2.8-2.8v-3.7c0-1.5,1.2-2.8,2.8-2.8h143.4c1.5,0,2.8,1.2,2.8,2.8v3.7
		C199.2,194.1,198,195.4,196.4,195.4z"/>
	<path class="st0" d="M174.9,206.9H31.4c-1.5,0-2.8-1.2-2.8-2.8v-3.7c0-1.5,1.2-2.8,2.8-2.8h143.4c1.5,0,2.8,1.2,2.8,2.8v3.7
		C177.6,205.6,176.4,206.9,174.9,206.9z"/>
	<path class="st0" d="M107.6,218.3H14.5c-1.5,0-2.8-1.2-2.8-2.8v-3.7c0-1.5,1.2-2.8,2.8-2.8h93.1c1.5,0,2.8,1.2,2.8,2.8v3.7
		C110.4,217.1,109.1,218.3,107.6,218.3z"/>
	<path class="st0" d="M293.2,208.2h-43.8c-1.5,0-2.8-1.2-2.8-2.8v-3.7c0-1.5,1.2-2.8,2.8-2.8h43.8c1.5,0,2.8,1.2,2.8,2.8v3.7
		C296,207,294.7,208.2,293.2,208.2z"/>
	<path class="st0" d="M319.1,196.2h-61.3c-1.5,0-2.8-1.2-2.8-2.8v-3.7c0-1.5,1.2-2.8,2.8-2.8h61.3c1.5,0,2.8,1.2,2.8,2.8v3.7
		C321.9,195,320.6,196.2,319.1,196.2z"/>
	<path class="st0" d="M322.9,183.9h-37.3c-1.5,0-2.8-1.2-2.8-2.8v-3.7c0-1.5,1.2-2.8,2.8-2.8h37.3c1.5,0,2.8,1.2,2.8,2.8v3.7
		C325.6,182.7,324.4,183.9,322.9,183.9z"/>
	<path class="st0" d="M324.1,172.5h-23.7c-1.5,0-2.8-1.2-2.8-2.8V166c0-1.5,1.2-2.8,2.8-2.8h23.7c1.5,0,2.8,1.2,2.8,2.8v3.7
		C326.9,171.2,325.7,172.5,324.1,172.5z"/>
	<path class="st0" d="M329,160.5h-23.7c-1.5,0-2.8-1.2-2.8-2.8V154c0-1.5,1.2-2.8,2.8-2.8H329c1.5,0,2.8,1.2,2.8,2.8v3.7
		C331.7,159.2,330.5,160.5,329,160.5z"/>
	<path class="st0" d="M418.6,78.6h-71.4c-1.5,0-2.8-1.2-2.8-2.8v-3.7c0-1.5,1.2-2.8,2.8-2.8h71.4c1.5,0,2.8,1.2,2.8,2.8v3.7
		C421.3,77.3,420.1,78.6,418.6,78.6z"/>
	<path class="st0" d="M426.7,90.6h-69.4c-1.5,0-2.8-1.2-2.8-2.8v-3.7c0-1.5,1.2-2.8,2.8-2.8h69.4c1.5,0,2.8,1.2,2.8,2.8v3.7
		C429.5,89.4,428.3,90.6,426.7,90.6z"/>
	<path class="st0" d="M432.7,102.6h-67.4c-1.5,0-2.8-1.2-2.8-2.8v-3.7c0-1.5,1.2-2.8,2.8-2.8h67.4c1.5,0,2.8,1.2,2.8,2.8v3.7
		C435.5,101.4,434.3,102.6,432.7,102.6z"/>
	<path class="st0" d="M432.7,114.1h-46.5c-1.5,0-2.8-1.2-2.8-2.8v-3.7c0-1.5,1.2-2.8,2.8-2.8h46.5c1.5,0,2.8,1.2,2.8,2.8v3.7
		C435.5,112.8,434.3,114.1,432.7,114.1z"/>
	<path class="st0" d="M420.7,125.5h-20.4c-1.5,0-2.8-1.2-2.8-2.8V119c0-1.5,1.2-2.8,2.8-2.8h20.4c1.5,0,2.8,1.2,2.8,2.8v3.7
		C423.5,124.3,422.2,125.5,420.7,125.5z"/>
	<path class="st0" d="M268.7,185h-11.8c-1.5,0-2.8-1.2-2.8-2.8v-3.7c0-1.5,1.2-2.8,2.8-2.8h11.8c1.5,0,2.8,1.2,2.8,2.8v3.7
		C271.5,183.8,270.2,185,268.7,185z"/>
</g>
<g>
	<path class="st0" d="M41.4,256.9c-2.1-3.5-7.9-6.8-14.5-6.8c-8.6,0-12.7,3.6-12.7,8.2c0,5.3,6.3,6.8,13.7,7.7
		c12.8,1.6,24.7,4.9,24.7,19.5c0,13.7-12.1,19.5-25.8,19.5c-12.5,0-22.2-3.9-26.7-15.1l9.6-5c2.7,6.7,9.8,9.7,17.3,9.7
		c7.3,0,14.1-2.5,14.1-9.2c0-5.8-6-8.2-14.2-9c-12.5-1.5-24.1-4.8-24.1-18.6c0-12.6,12.4-17.8,23.8-17.9c9.6,0,19.5,2.7,24.1,12.2
		L41.4,256.9z"/>
</g>
<g>
	<path class="st0" d="M105,291.9H72.9l-5.3,11.6H55.1l27.5-61.3h12.6l27.5,61.3h-12.6L105,291.9z M89,255l-11.4,26.1h22.8L89,255z"
		/>
</g>
<g>
	<path class="st0" d="M252.6,246.4h-22.2v-4.2h49.1v4.2h-22.2v57.1h-4.7V246.4z"/>
</g>
<g>
	<path class="st0" d="M293.1,270.4H329v4.3h-35.9v24.2h38.7v4.6h-43.4v-61.3h42.3v4.5h-37.7V270.4z"/>
</g>
<g>
	<path class="st0" d="M392.9,294.9c-6.1,6.1-14.3,9.2-22.3,9.2c-20.7,0-31.5-14.5-31.6-31c-0.2-16.4,10.5-31.7,31.6-31.7
		c8.1,0,16.2,3.1,22.3,9.2l-3.2,2.8c-5.3-5.3-12.2-7.8-19.1-7.8c-17.9,0-27.1,12.6-27,27.3c0.2,14.4,9.3,26.8,27,26.8
		c6.9,0,13.9-2.6,19.2-7.8L392.9,294.9z"/>
</g>
<g>
	<path class="st0" d="M447.8,303.4v-27.9h-39.1v27.9H404v-61.3h4.7v29.2h39.1v-29.2h4.7v61.3H447.8z"/>
</g>
<g>
	<path class="st0" d="M200,343h-22.7c0-10.1,0-20.2,0-30.3H200v5.5h-17v7h16.4v5.3h-16.4v6.8h17V343z"/>
	<path class="st0" d="M234.1,327.4c0,3.5-0.9,7.1-2.8,9.9l3.6,3.6l-4,4l-3.7-3.6c-2.3,1.5-5.2,2.3-8.6,2.3
		c-10.8,0-15.5-7.8-15.6-15.7c0-7.9,4.9-15.8,15.6-15.8C229.2,311.9,234,319.6,234.1,327.4z M208.6,327.9c0.1,5,3.4,10.3,10,10.3
		c6.8,0,10.1-5.8,9.9-11c-0.2-4.9-2.8-10.2-9.9-10.2C211.4,317.1,208.5,322.8,208.6,327.9z"/>
	<path class="st0" d="M264.8,312.7v17.4c0,9-5.5,13.6-13.1,13.6c-7.3,0-13.5-4.4-13.5-13.6v-17.4h5.7v17.4c0,5.5,3.1,8.4,7.8,8.4
		c4.7,0,7.4-3.2,7.4-8.4v-17.4H264.8z"/>
	<path class="st0" d="M293,343h-22.7c0-10.1,0-20.2,0-30.3H293v5.5h-17v7h16.4v5.3H276v6.8h17V343z"/>
	<path class="st0" d="M317.1,320c-1-1.7-3.9-3.4-7.2-3.4c-4.2,0-6.3,1.8-6.3,4c0,2.6,3.1,3.4,6.8,3.8c6.3,0.8,12.2,2.4,12.2,9.7
		c0,6.8-6,9.7-12.7,9.7c-6.2,0-11-1.9-13.2-7.4l4.8-2.5c1.3,3.3,4.8,4.8,8.5,4.8c3.6,0,7-1.3,7-4.5c0-2.9-3-4-7-4.5
		c-6.2-0.7-11.9-2.4-11.9-9.2c0-6.2,6.1-8.8,11.7-8.8c4.7,0,9.6,1.3,11.9,6L317.1,320z"/>
	<path class="st0" d="M334.8,317.9h-9.6v-5.2c8.7,0,16.2,0,24.9,0v5.2h-9.6V343h-5.7V317.9z"/>
	<path class="st0" d="M380.5,343h-6.8l-8.8-10.1h-5.5V343h-5.7v-30.4c4.8,0,9.6,0,14.4,0c7.1,0,10.9,4.8,10.9,10
		c0,4.2-1.9,8.4-7.7,9.5l9.2,10.3V343z M359.4,318v9.7h8.7c3.6,0,5.2-2.4,5.2-4.9s-1.6-4.8-5.2-4.8H359.4z"/>
	<path class="st0" d="M382.9,343v-30.3h5.7V343H382.9z"/>
	<path class="st0" d="M415.5,337.3h-15.8L397,343h-6.2l13.6-30.3h6.2l13.6,30.3H418L415.5,337.3z M407.6,319l-5.6,12.9h11.3
		L407.6,319z"/>
	<path class="st0" d="M446.8,312.6h5.7V343H449v0L433,322.5V343h-5.7v-30.3h4.6l14.9,18.8V312.6z"/>
</g>
<g>
	<g>
		<path class="st0" d="M224.9,242.1H179c0,3.7,0,7.5,0,11.2h11.5h34.4V242.1z"/>
	</g>
	<g>
		<path class="st0" d="M179,266.9h-40.3v-13.6h32.5v-11.1h-44.1v61.3h11.6v-25.9H179c0,8.6,0,17.3,0,25.9h45.9V292h-34.4v-13.8h33.2
			v-10.8h-33.2v-9.3H179C179,261,179,263.9,179,266.9z"/>
	</g>
</g>
</svg>
